<mxfile host="app.diagrams.net" modified="2024-07-18T05:02:08.145Z" agent="Mozilla/5.0 (Macintosh; Intel Mac OS X 10_15_7) AppleWebKit/537.36 (KHTML, like Gecko) Chrome/126.0.0.0 Safari/537.36" etag="DCtyGGAxwIOTyn1w9U-Z" version="24.7.1" type="device">
  <diagram name="Page-1" id="h0w5p6ko6SrGlQpOR4B3">
    <mxGraphModel dx="2159" dy="1981" grid="1" gridSize="10" guides="1" tooltips="1" connect="1" arrows="1" fold="1" page="1" pageScale="1" pageWidth="827" pageHeight="1169" math="0" shadow="0">
      <root>
        <mxCell id="0" />
        <mxCell id="1" parent="0" />
        <mxCell id="ERmttxLBuujvDo0ulHR1-1" value="" style="rounded=1;whiteSpace=wrap;html=1;" vertex="1" parent="1">
          <mxGeometry x="180" y="90" width="290" height="90" as="geometry" />
        </mxCell>
        <mxCell id="ERmttxLBuujvDo0ulHR1-2" value="&lt;font style=&quot;font-size: 25px;&quot;&gt;Hashing:&lt;/font&gt;&lt;div style=&quot;font-size: 25px;&quot;&gt;&lt;font style=&quot;font-size: 25px;&quot;&gt;i = hash (key)&amp;nbsp; %&amp;nbsp; k&lt;/font&gt;&lt;/div&gt;" style="text;html=1;align=center;verticalAlign=middle;whiteSpace=wrap;rounded=0;fontSize=11;" vertex="1" parent="1">
          <mxGeometry x="215" y="105" width="220" height="60" as="geometry" />
        </mxCell>
        <mxCell id="ERmttxLBuujvDo0ulHR1-3" value="&lt;font style=&quot;font-size: 18px;&quot;&gt;i = Server No&lt;/font&gt;&lt;div&gt;&lt;font size=&quot;3&quot;&gt;Key= Data Key&lt;/font&gt;&lt;/div&gt;&lt;div&gt;&lt;font size=&quot;3&quot;&gt;k = No of server&lt;/font&gt;&lt;/div&gt;" style="text;html=1;align=left;verticalAlign=middle;whiteSpace=wrap;rounded=0;" vertex="1" parent="1">
          <mxGeometry x="520" y="150" width="210" height="70" as="geometry" />
        </mxCell>
        <mxCell id="ERmttxLBuujvDo0ulHR1-4" value="" style="rounded=0;whiteSpace=wrap;html=1;fillColor=#ffe6cc;strokeColor=#d79b00;" vertex="1" parent="1">
          <mxGeometry x="270" y="10" width="110" height="40" as="geometry" />
        </mxCell>
        <mxCell id="ERmttxLBuujvDo0ulHR1-5" value="" style="endArrow=classic;html=1;rounded=0;exitX=0.5;exitY=1;exitDx=0;exitDy=0;entryX=0.5;entryY=0;entryDx=0;entryDy=0;" edge="1" parent="1" source="ERmttxLBuujvDo0ulHR1-4" target="ERmttxLBuujvDo0ulHR1-1">
          <mxGeometry width="50" height="50" relative="1" as="geometry">
            <mxPoint x="330" y="140" as="sourcePoint" />
            <mxPoint x="318" y="91" as="targetPoint" />
          </mxGeometry>
        </mxCell>
        <mxCell id="ERmttxLBuujvDo0ulHR1-6" value="" style="rounded=1;whiteSpace=wrap;html=1;" vertex="1" parent="1">
          <mxGeometry x="-140" y="300" width="220" height="100" as="geometry" />
        </mxCell>
        <mxCell id="ERmttxLBuujvDo0ulHR1-7" value="" style="rounded=0;whiteSpace=wrap;html=1;fillColor=#ffe6cc;strokeColor=#d79b00;" vertex="1" parent="1">
          <mxGeometry x="-120" y="360" width="90" height="30" as="geometry" />
        </mxCell>
        <mxCell id="ERmttxLBuujvDo0ulHR1-8" value="" style="rounded=0;whiteSpace=wrap;html=1;fillColor=#ffe6cc;strokeColor=#d79b00;" vertex="1" parent="1">
          <mxGeometry x="-20" y="335" width="90" height="30" as="geometry" />
        </mxCell>
        <mxCell id="ERmttxLBuujvDo0ulHR1-9" value="" style="rounded=1;whiteSpace=wrap;html=1;" vertex="1" parent="1">
          <mxGeometry x="110" y="300" width="220" height="100" as="geometry" />
        </mxCell>
        <mxCell id="ERmttxLBuujvDo0ulHR1-10" value="" style="rounded=0;whiteSpace=wrap;html=1;fillColor=#ffe6cc;strokeColor=#d79b00;" vertex="1" parent="1">
          <mxGeometry x="130" y="320" width="90" height="30" as="geometry" />
        </mxCell>
        <mxCell id="ERmttxLBuujvDo0ulHR1-11" value="" style="rounded=1;whiteSpace=wrap;html=1;" vertex="1" parent="1">
          <mxGeometry x="360" y="300" width="220" height="100" as="geometry" />
        </mxCell>
        <mxCell id="ERmttxLBuujvDo0ulHR1-12" value="" style="rounded=0;whiteSpace=wrap;html=1;fillColor=#ffe6cc;strokeColor=#d79b00;" vertex="1" parent="1">
          <mxGeometry x="380" y="320" width="90" height="30" as="geometry" />
        </mxCell>
        <mxCell id="ERmttxLBuujvDo0ulHR1-16" value="" style="endArrow=classic;html=1;rounded=0;exitX=0.466;exitY=1.007;exitDx=0;exitDy=0;exitPerimeter=0;" edge="1" parent="1" source="ERmttxLBuujvDo0ulHR1-1">
          <mxGeometry width="50" height="50" relative="1" as="geometry">
            <mxPoint x="300" y="250" as="sourcePoint" />
            <mxPoint x="-20" y="290" as="targetPoint" />
          </mxGeometry>
        </mxCell>
        <mxCell id="ERmttxLBuujvDo0ulHR1-17" value="" style="endArrow=classic;html=1;rounded=0;entryX=0.438;entryY=-0.031;entryDx=0;entryDy=0;entryPerimeter=0;" edge="1" parent="1" target="ERmttxLBuujvDo0ulHR1-9">
          <mxGeometry width="50" height="50" relative="1" as="geometry">
            <mxPoint x="310" y="180" as="sourcePoint" />
            <mxPoint x="-10" y="300" as="targetPoint" />
          </mxGeometry>
        </mxCell>
        <mxCell id="ERmttxLBuujvDo0ulHR1-18" value="" style="endArrow=classic;html=1;rounded=0;entryX=0.5;entryY=0;entryDx=0;entryDy=0;" edge="1" parent="1" target="ERmttxLBuujvDo0ulHR1-11">
          <mxGeometry width="50" height="50" relative="1" as="geometry">
            <mxPoint x="310" y="180" as="sourcePoint" />
            <mxPoint x="216" y="307" as="targetPoint" />
          </mxGeometry>
        </mxCell>
        <mxCell id="ERmttxLBuujvDo0ulHR1-20" value="&lt;font style=&quot;font-size: 18px;&quot;&gt;S0&lt;/font&gt;" style="text;html=1;align=center;verticalAlign=middle;whiteSpace=wrap;rounded=0;" vertex="1" parent="1">
          <mxGeometry x="-70" y="410" width="60" height="30" as="geometry" />
        </mxCell>
        <mxCell id="ERmttxLBuujvDo0ulHR1-21" value="&lt;font style=&quot;font-size: 18px;&quot;&gt;S1&lt;/font&gt;" style="text;html=1;align=center;verticalAlign=middle;whiteSpace=wrap;rounded=0;" vertex="1" parent="1">
          <mxGeometry x="180" y="410" width="60" height="30" as="geometry" />
        </mxCell>
        <mxCell id="ERmttxLBuujvDo0ulHR1-22" value="&lt;font style=&quot;font-size: 18px;&quot;&gt;S2&lt;/font&gt;" style="text;html=1;align=center;verticalAlign=middle;whiteSpace=wrap;rounded=0;" vertex="1" parent="1">
          <mxGeometry x="450" y="410" width="60" height="30" as="geometry" />
        </mxCell>
        <mxCell id="ERmttxLBuujvDo0ulHR1-24" value="&lt;font face=&quot;sohne, Helvetica Neue, Helvetica, Arial, sans-serif&quot; color=&quot;#6b6b6b&quot;&gt;&lt;span style=&quot;font-size: 18px; background-color: rgb(255, 255, 255);&quot;&gt;&lt;b&gt;After Re-Hashing&lt;/b&gt;&lt;/span&gt;&lt;/font&gt;" style="text;html=1;align=center;verticalAlign=middle;whiteSpace=wrap;rounded=0;" vertex="1" parent="1">
          <mxGeometry x="-170" y="450" width="1040" height="30" as="geometry" />
        </mxCell>
        <mxCell id="ERmttxLBuujvDo0ulHR1-26" value="" style="rounded=0;whiteSpace=wrap;html=1;fillColor=#ffe6cc;strokeColor=#d79b00;" vertex="1" parent="1">
          <mxGeometry x="470" y="360" width="90" height="30" as="geometry" />
        </mxCell>
        <mxCell id="ERmttxLBuujvDo0ulHR1-27" value="" style="rounded=0;whiteSpace=wrap;html=1;strokeOpacity=100;fillOpacity=0;" vertex="1" parent="1">
          <mxGeometry x="-270" y="-40" width="1100" height="570" as="geometry" />
        </mxCell>
      </root>
    </mxGraphModel>
  </diagram>
</mxfile>
